PathFileType	3	(X/Y/Z)	C:\Users\koon_\Desktop\
DataRate	CameraRate	NumFrames	NumMarkers	Units	OrigDataRate	OrigDataStartFrame	OrigNumFrames
100.0	100.0	9	27	mm	100.0	1942	5176	
Frame#	Time	get:LFHD			get:RFHD			get:LBHD			get:RBHD			get:C7			get:T10			get:CLAV			get:STRN			get:RBAK			get:LSHO			get:LUPA			get:LELB			get:LFRA			get:LWRA			get:LWRB			get:LFIN			get:RSHO			get:RUPA			get:RELB			get:RFRA			get:RWRA			get:RWRB			get:RFIN			get:LASI			get:RASI			get:LPSI			get:RPSI			
		X1	Y1	Z1	X2	Y2	Z2	X3	Y3	Z3	X4	Y4	Z4	X5	Y5	Z5	X6	Y6	Z6	X7	Y7	Z7	X8	Y8	Z8	X9	Y9	Z9	X10	Y10	Z10	X11	Y11	Z11	X12	Y12	Z12	X13	Y13	Z13	X14	Y14	Z14	X15	Y15	Z15	X16	Y16	Z16	X17	Y17	Z17	X18	Y18	Z18	X19	Y19	Z19	X20	Y20	Z20	X21	Y21	Z21	X22	Y22	Z22	X23	Y23	Z23	X24	Y24	Z24	X25	Y25	Z25	X26	Y26	Z26	X27	Y27	Z27	
1942	19.41	102.65517	1568.6713	-38.283676	-54.410362	1567.7987	-43.847733	101.09406	1569.3391	-164.58958	-24.018469	1580.7583	-186.93608	-6.7786779	1374.7739	-213.90736	37.357384	1131.5352	-223.91431	10.228668	1321.1429	-25.082268	45.201946	1139.6422	35.969261	-71.372292	1305.0249	-232.46133	76.918488	1416.2166	-153.58406	144.01636	1484.6101	-166.94199	279.45432	1596.5627	-145.15823	260.79745	1714.8556	-103.56479	286.90549	1804.5663	-67.792549	346.64432	1788.2134	-96.997978	350.17767	1881.1733	-97.970825	-145.68925	1356.4453	-122.38488	-199.76018	1136.6528	-99.83271	-195.8512	1032.7109	-155.45502	-198.80211	964.88947	-74.265892	-187.14066	812.18353	-49.122391	-208.99406	811.6239	-120.54783	-232.15677	744.50507	-62.521839	164.12317	937.73242	-34.565372	-109.81249	923.81775	-35.625263	80.551003	967.23981	-230.40012	-26.595846	958.09418	-232.48175
1943	19.42	102.52955	1568.6736	-38.266022	-54.501698	1567.7351	-43.789574	100.93316	1569.4154	-164.61597	-24.157265	1580.7606	-186.91588	-6.7843204	1374.8341	-213.8853	37.250851	1131.4996	-223.9579	10.264149	1321.113	-25.11491	45.200371	1139.603	36.015987	-71.417747	1305.0695	-232.53445	77.041985	1416.1578	-153.62503	144.29309	1484.5226	-166.81653	279.8974	1596.1718	-144.92438	261.43408	1714.4225	-103.11116	287.76892	1804.0669	-67.202744	347.63083	1787.478	-96.773315	351.17743	1880.5632	-97.399223	-145.70111	1356.4658	-122.3582	-199.77936	1136.6346	-99.827713	-195.93204	1032.6707	-155.30563	-198.82092	964.91522	-74.187935	-187.17604	812.19208	-48.993046	-209.08522	811.62909	-120.35846	-232.20003	744.56866	-62.349796	164.04414	937.73199	-34.605404	-109.8428	923.81598	-35.564392	80.422356	967.24182	-230.44208	-26.664503	958.0946	-232.49533
1944	19.43	102.40907	1568.7295	-38.246387	-54.607155	1567.686	-43.72319	100.77462	1569.5038	-164.64813	-24.365894	1580.7988	-186.88814	-6.7761111	1374.908	-213.96469	37.149933	1131.4669	-224.0218	10.324603	1321.1068	-25.192095	45.241543	1139.5841	35.971775	-71.500671	1305.0012	-232.46863	77.205551	1416.0837	-153.64525	144.63263	1484.4271	-166.75725	280.43292	1595.7571	-144.69748	262.13791	1713.9821	-102.55442	288.70175	1803.5126	-66.602875	348.21527	1787.0311	-96.159096	352.10352	1879.9843	-96.798592	-145.70213	1356.4574	-122.3252	-199.79016	1136.688	-99.747742	-195.99982	1032.7238	-155.2867	-198.85239	964.96002	-74.117607	-187.18752	812.24048	-48.829056	-209.12709	811.67841	-120.27798	-232.11636	744.69086	-62.997066	163.99968	937.73145	-34.664543	-109.89807	923.81342	-35.498047	80.365692	967.22205	-230.47006	-26.773424	958.06323	-232.47574
1945	19.44	102.27155	1568.8025	-38.252117	-54.748978	1567.5887	-43.723953	100.57671	1569.6031	-164.68945	-24.539234	1580.8207	-186.90982	-6.7901521	1374.8989	-213.99991	37.052647	1131.4161	-224.06645	10.362595	1321.0669	-25.155033	45.261356	1139.5248	35.880981	-71.571442	1305.0039	-232.49641	77.395607	1416.001	-153.74442	144.96202	1484.2659	-166.68132	280.98779	1595.3046	-144.44649	262.93631	1713.4261	-102.09515	289.64951	1802.8307	-65.810905	349.11963	1786.3896	-95.613525	353.18317	1879.186	-96.017372	-145.66144	1356.5034	-122.38216	-199.76743	1136.7264	-99.609413	-196.06508	1032.7671	-155.2215	-198.89169	965.00513	-73.976273	-187.22472	812.28369	-48.710014	-209.22339	811.68665	-120.12511	-232.12997	744.69391	-62.850945	163.92076	937.72272	-34.756618	-109.91165	923.81293	-35.43544	80.268143	967.22192	-230.48288	-26.912502	958.0401	-232.42754
1946	19.45	102.12608	1568.8844	-38.233997	-54.878086	1567.4796	-43.769882	100.36886	1569.7532	-164.75864	-24.941301	1580.5198	-186.6864	-6.7410178	1374.947	-214.03679	36.906868	1131.3584	-224.14493	10.452205	1321.0582	-25.288769	45.297485	1139.5073	35.826744	-71.592598	1305.0031	-232.56241	77.618317	1415.9237	-153.77788	145.36494	1484.0438	-166.59592	281.57794	1594.806	-144.21951	263.76184	1712.8309	-101.4328	290.625	1802.1213	-65.093681	350.03107	1785.7206	-95.013206	354.08994	1878.5784	-95.276894	-145.62416	1356.5526	-122.36639	-199.83578	1136.8098	-99.495056	-196.18077	1032.7946	-155.04626	-198.92557	965.01886	-73.91391	-187.25833	812.3493	-48.551006	-209.26979	811.72748	-119.94218	-232.17081	744.77069	-62.781422	163.85794	937.72205	-34.824459	-109.99321	923.79974	-35.4114	80.168457	967.16473	-230.51791	-26.990175	958.00073	-232.42807
1947	19.46	101.94094	1568.9796	-38.363678	-55.029472	1567.3867	-43.75322	100.13891	1569.8994	-164.85516	-25.0723	1580.7694	-186.90314	-6.7236609	1374.9663	-214.07727	36.757069	1131.2939	-224.21008	10.500751	1321.0085	-25.20841	45.290333	1139.4535	35.811344	-71.643356	1305.0042	-232.66641	77.868942	1415.803	-153.77158	145.82304	1483.8503	-166.52379	282.25259	1594.2799	-143.99451	264.68909	1712.1873	-100.80981	291.55814	1801.2626	-63.523434	351.15802	1784.7997	-94.509056	355.06396	1877.8105	-94.334824	-145.57576	1356.5916	-122.37876	-199.83124	1136.8824	-99.395355	-196.2525	1032.8768	-154.95633	-198.92781	965.11487	-73.732216	-187.28297	812.40424	-48.391537	-209.39816	811.80048	-119.80235	-232.31285	744.78455	-61.716984	163.77081	937.70258	-34.902748	-110.03009	923.78107	-35.341209	80.039139	967.12701	-230.56024	-27.100082	958	-232.49588
1948	19.47	101.80898	1569.1683	-39.355049	-55.07523	1567.1825	-44.330334	99.895088	1570.0443	-164.91975	-25.368063	1580.7498	-186.90997	-6.6566505	1374.9799	-214.13445	36.602604	1131.2039	-224.25424	10.51654	1320.9569	-25.352295	45.30085	1139.4226	35.586891	-71.669357	1304.9883	-232.67973	78.151718	1415.7052	-153.78984	146.31912	1483.6025	-166.31526	283.07233	1593.6705	-143.7381	265.62677	1711.4299	-100.10513	292.68588	1800.34	-62.444435	352.18527	1783.9792	-93.796928	356.18503	1876.9359	-93.225227	-145.53828	1356.6219	-122.43761	-199.85753	1136.9606	-99.316322	-196.29105	1032.9601	-154.94318	-198.98419	965.17493	-73.600952	-187.2998	812.49066	-48.211426	-209.54424	811.87061	-119.64024	-232.25931	744.84808	-62.332123	163.75072	937.65393	-35.000431	-110.14143	923.78394	-35.264019	79.89019	967.08075	-230.62827	-27.267071	957.92358	-232.40268
1949	19.48	101.62814	1569.2451	-39.18544	-55.326317	1567.0554	-44.343155	99.598427	1570.1725	-165.03198	-25.696196	1580.718	-186.90096	-6.6296835	1375.0171	-214.12372	36.424385	1131.13	-224.3409	10.548706	1320.856	-25.280928	45.291046	1139.3219	35.560562	-71.708977	1305.0044	-232.87109	78.450233	1415.5553	-153.80571	146.91599	1483.345	-166.01167	283.98001	1592.7986	-143.51701	266.81644	1710.5468	-99.348747	293.98306	1799.3137	-61.44698	353.29474	1783.0505	-93.019714	357.29285	1876.0441	-92.080139	-145.51607	1356.6284	-122.51582	-199.87041	1137.0126	-99.24633	-196.37578	1033.017	-154.92151	-199.00421	965.24005	-73.422569	-187.37761	812.55774	-48.061253	-209.65337	811.92395	-119.42714	-232.42329	744.9035	-61.22718	163.68044	937.63843	-35.06974	-110.18912	923.73938	-35.200466	79.766762	967.0224	-230.66771	-27.393002	957.90344	-232.4626
1950	19.49	101.4517	1569.3497	-39.626743	-55.517399	1566.9772	-44.324978	99.27552	1570.2837	-165.19936	-26.040802	1580.6786	-186.97964	-6.6795483	1375.0568	-214.15869	36.331341	1131.0466	-224.42635	10.543043	1320.7965	-25.333046	45.259212	1139.2252	35.453594	-71.765327	1304.9701	-232.97137	78.774399	1415.423	-153.7816	147.57106	1483.0782	-165.8165	284.93472	1592.0675	-143.13467	268.12106	1709.512	-98.495987	295.50888	1798.1409	-61.023056	354.42908	1782.1774	-92.108192	358.47528	1875.0358	-90.859482	-145.50435	1356.6447	-122.64936	-199.92975	1137.0624	-99.216713	-196.43443	1033.0558	-154.8266	-199.04897	965.28772	-73.278694	-187.42062	812.60748	-47.829018	-209.7993	811.9848	-119.24284	-232.50441	744.95117	-60.956787	163.60786	937.58917	-35.157162	-110.23309	923.7113	-35.145363	79.606773	966.96533	-230.74522	-27.540766	957.86212	-232.47594
